<?xml version="1.0" ?><svg viewBox="0 0 32 32" xmlns="http://www.w3.org/2000/svg"><title/><g data-name="Layer 2" id="Layer_2"><path d="M28,9.5H21.44A3.49,3.49,0,0,0,19,3.5a3.66,3.66,0,0,0-3,2,3.71,3.71,0,0,0-3-2,3.49,3.49,0,0,0-2.44,6H4a.5.5,0,0,0-.5.5v4.29a.47.47,0,0,0,.15.35.51.51,0,0,0,.35.15h.36V28a.5.5,0,0,0,.5.5H27.14a.5.5,0,0,0,.5-.5V14.79H28a.5.5,0,0,0,.5-.5V10A.5.5,0,0,0,28,9.5Zm-.5,1v3.29H18.21V10.5H27.5ZM16,10.5h1.21v3.29H14.79V10.5Zm1.21,4.29V27.5H14.79V14.79ZM19,4.5a2.5,2.5,0,0,1,0,5H16.5V6.67C16.68,6.27,17.52,4.5,19,4.5ZM10.5,7A2.5,2.5,0,0,1,13,4.5c1.47,0,2.33,1.77,2.51,2.17V9.5H13A2.5,2.5,0,0,1,10.5,7Zm-6,3.5h9.29v3.29H4.5Zm.86,4.29h8.43V27.5H5.36ZM26.64,27.5H18.21V14.79h8.43Z"/><path d="M23,26.5h2a.5.5,0,0,0,.5-.5V23a.5.5,0,0,0-1,0v2.5H23a.5.5,0,0,0,0,1Z"/></g></svg>